<mxfile host="app.diagrams.net" modified="2024-06-25T16:41:28.125Z" agent="Mozilla/5.0 (Windows NT 10.0; Win64; x64) AppleWebKit/537.36 (KHTML, like Gecko) Chrome/126.0.0.0 Safari/537.36 Edg/126.0.0.0" etag="E1mO5kF-1ns57pZyCVCn" version="24.6.3" type="device" pages="2">
  <diagram id="3_zKztBFhm4ZAykGLBfE" name="[0] ost-srl">
    <mxGraphModel dx="1042" dy="569" grid="1" gridSize="1" guides="1" tooltips="1" connect="1" arrows="1" fold="1" page="1" pageScale="1" pageWidth="827" pageHeight="1169" background="#4D5766" math="0" shadow="0">
      <root>
        <mxCell id="0" />
        <mxCell id="1" parent="0" />
        <mxCell id="2Sv0aqTZc2X42y4k00EZ-13" value="&lt;font&gt;Lab wiring diagram&lt;/font&gt;" style="text;html=1;align=center;verticalAlign=middle;resizable=0;points=[];autosize=1;fontSize=14;fontFamily=Manrope;fontStyle=0;fontColor=#FFFFFF;" parent="1" vertex="1">
          <mxGeometry x="185" y="490" width="135" height="25" as="geometry" />
        </mxCell>
        <mxCell id="2Sv0aqTZc2X42y4k00EZ-21" style="rounded=0;orthogonalLoop=1;jettySize=auto;html=1;entryX=0.5;entryY=1;entryDx=0;entryDy=0;startSize=6;endArrow=none;endFill=0;endSize=2;fontFamily=Manrope;fontSize=8;dashed=1;fontSource=https%3A%2F%2Ffonts.googleapis.com%2Fcss%3Ffamily%3DManrope;strokeColor=#FFFFFF;" parent="1" edge="1">
          <mxGeometry relative="1" as="geometry">
            <mxPoint x="490" y="503" as="sourcePoint" />
            <mxPoint x="490" y="165" as="targetPoint" />
          </mxGeometry>
        </mxCell>
        <mxCell id="2Sv0aqTZc2X42y4k00EZ-87" value="" style="group" parent="1" vertex="1" connectable="0">
          <mxGeometry x="596" y="334" width="50" height="50" as="geometry" />
        </mxCell>
        <mxCell id="2Sv0aqTZc2X42y4k00EZ-88" value="" style="group" parent="2Sv0aqTZc2X42y4k00EZ-87" vertex="1" connectable="0">
          <mxGeometry width="50" height="50" as="geometry" />
        </mxCell>
        <mxCell id="2Sv0aqTZc2X42y4k00EZ-89" value="" style="whiteSpace=wrap;html=1;aspect=fixed;fillColor=#001135;strokeColor=none;connectable=1;allowArrows=1;fontFamily=Manrope;fontSource=https%3A%2F%2Ffonts.googleapis.com%2Fcss%3Ffamily%3DManrope;" parent="2Sv0aqTZc2X42y4k00EZ-88" vertex="1">
          <mxGeometry width="50" height="50" as="geometry" />
        </mxCell>
        <mxCell id="2Sv0aqTZc2X42y4k00EZ-90" value="" style="endArrow=open;html=1;edgeStyle=orthogonalEdgeStyle;rounded=0;endFill=0;startSize=6;endSize=2;strokeColor=#FFFFFF;fontFamily=Manrope;fontSource=https%3A%2F%2Ffonts.googleapis.com%2Fcss%3Ffamily%3DManrope;" parent="2Sv0aqTZc2X42y4k00EZ-88" edge="1">
          <mxGeometry width="83.33333333333334" height="83.33333333333334" as="geometry">
            <mxPoint x="5" y="20" as="sourcePoint" />
            <mxPoint x="18.333333333333336" y="5" as="targetPoint" />
            <Array as="points">
              <mxPoint x="18.333333333333336" y="20" />
            </Array>
          </mxGeometry>
        </mxCell>
        <mxCell id="2Sv0aqTZc2X42y4k00EZ-91" value="" style="endArrow=open;html=1;edgeStyle=orthogonalEdgeStyle;rounded=0;endFill=0;startSize=6;endSize=2;strokeColor=#FFFFFF;fontFamily=Manrope;fontSource=https%3A%2F%2Ffonts.googleapis.com%2Fcss%3Ffamily%3DManrope;" parent="2Sv0aqTZc2X42y4k00EZ-88" edge="1">
          <mxGeometry width="83.33333333333334" height="83.33333333333334" as="geometry">
            <mxPoint x="18.333333333333336" y="45" as="sourcePoint" />
            <mxPoint x="5" y="31.666666666666668" as="targetPoint" />
            <Array as="points">
              <mxPoint x="18.333333333333336" y="31.666666666666668" />
            </Array>
          </mxGeometry>
        </mxCell>
        <mxCell id="2Sv0aqTZc2X42y4k00EZ-92" value="" style="endArrow=open;html=1;edgeStyle=orthogonalEdgeStyle;rounded=0;endFill=0;startSize=6;endSize=2;strokeColor=#FFFFFF;fontFamily=Manrope;fontSource=https%3A%2F%2Ffonts.googleapis.com%2Fcss%3Ffamily%3DManrope;" parent="2Sv0aqTZc2X42y4k00EZ-88" edge="1">
          <mxGeometry width="83.33333333333334" height="83.33333333333334" as="geometry">
            <mxPoint x="30" y="5" as="sourcePoint" />
            <mxPoint x="45" y="20" as="targetPoint" />
            <Array as="points">
              <mxPoint x="30" y="20" />
            </Array>
          </mxGeometry>
        </mxCell>
        <mxCell id="2Sv0aqTZc2X42y4k00EZ-93" value="" style="endArrow=open;html=1;edgeStyle=orthogonalEdgeStyle;rounded=0;endFill=0;startSize=6;endSize=2;strokeColor=#FFFFFF;fontFamily=Manrope;fontSource=https%3A%2F%2Ffonts.googleapis.com%2Fcss%3Ffamily%3DManrope;" parent="2Sv0aqTZc2X42y4k00EZ-88" edge="1">
          <mxGeometry width="83.33333333333334" height="83.33333333333334" as="geometry">
            <mxPoint x="45" y="31.666666666666668" as="sourcePoint" />
            <mxPoint x="30" y="45" as="targetPoint" />
            <Array as="points">
              <mxPoint x="30" y="31.666666666666668" />
            </Array>
          </mxGeometry>
        </mxCell>
        <mxCell id="2Sv0aqTZc2X42y4k00EZ-94" value="&lt;font&gt;ostinato&lt;/font&gt;" style="text;html=1;align=center;verticalAlign=middle;resizable=0;points=[];autosize=1;fontSize=14;fontFamily=Manrope;fontStyle=0;fontColor=#FFFFFF;" parent="1" vertex="1">
          <mxGeometry x="585" y="385" width="73" height="30" as="geometry" />
        </mxCell>
        <mxCell id="2Sv0aqTZc2X42y4k00EZ-95" value="" style="endArrow=none;html=1;shadow=0;strokeWidth=4;fillColor=#666666;fontFamily=nasa;fontSize=18;fontColor=#FFFFFF;strokeColor=#4BDD33;" parent="1" edge="1">
          <mxGeometry width="50" height="50" relative="1" as="geometry">
            <mxPoint x="600" y="294" as="sourcePoint" />
            <mxPoint x="781" y="294" as="targetPoint" />
          </mxGeometry>
        </mxCell>
        <mxCell id="2Sv0aqTZc2X42y4k00EZ-96" value="&lt;font style=&quot;font-size: 12px&quot;&gt;&lt;font color=&quot;#ffffff&quot;&gt;docker network:&lt;/font&gt;&lt;br&gt;&lt;/font&gt;&lt;span style=&quot;font-size: 12px&quot;&gt;&lt;font color=&quot;#bec8d2&quot;&gt;clab&lt;/font&gt;&lt;/span&gt;" style="text;html=1;align=right;verticalAlign=middle;resizable=0;points=[];autosize=1;fontSize=10;fontFamily=Manrope;fontColor=#001135;" parent="1" vertex="1">
          <mxGeometry x="496" y="280" width="100" height="30" as="geometry" />
        </mxCell>
        <mxCell id="2Sv0aqTZc2X42y4k00EZ-97" style="edgeStyle=orthogonalEdgeStyle;rounded=0;orthogonalLoop=1;jettySize=auto;html=1;fontFamily=Manrope;fontSize=12;fontColor=#FFFFFF;endArrow=oval;endFill=1;startArrow=oval;startFill=1;strokeColor=#4BDD33;" parent="1" target="2Sv0aqTZc2X42y4k00EZ-89" edge="1">
          <mxGeometry relative="1" as="geometry">
            <mxPoint x="621" y="294" as="sourcePoint" />
            <mxPoint x="620.9949999999999" y="322" as="targetPoint" />
          </mxGeometry>
        </mxCell>
        <mxCell id="2Sv0aqTZc2X42y4k00EZ-98" value="" style="group" parent="1" vertex="1" connectable="0">
          <mxGeometry x="731" y="334" width="50" height="50" as="geometry" />
        </mxCell>
        <mxCell id="2Sv0aqTZc2X42y4k00EZ-99" value="" style="group" parent="2Sv0aqTZc2X42y4k00EZ-98" vertex="1" connectable="0">
          <mxGeometry width="50" height="50" as="geometry" />
        </mxCell>
        <mxCell id="2Sv0aqTZc2X42y4k00EZ-100" value="" style="whiteSpace=wrap;html=1;aspect=fixed;fillColor=#001135;strokeColor=none;connectable=1;allowArrows=1;fontFamily=Manrope;fontSource=https%3A%2F%2Ffonts.googleapis.com%2Fcss%3Ffamily%3DManrope;" parent="2Sv0aqTZc2X42y4k00EZ-99" vertex="1">
          <mxGeometry width="50" height="50" as="geometry" />
        </mxCell>
        <mxCell id="2Sv0aqTZc2X42y4k00EZ-101" value="" style="endArrow=open;html=1;edgeStyle=orthogonalEdgeStyle;rounded=0;endFill=0;startSize=6;endSize=2;strokeColor=#FFFFFF;fontFamily=Manrope;fontSource=https%3A%2F%2Ffonts.googleapis.com%2Fcss%3Ffamily%3DManrope;" parent="2Sv0aqTZc2X42y4k00EZ-99" edge="1">
          <mxGeometry width="83.33333333333334" height="83.33333333333334" as="geometry">
            <mxPoint x="5" y="20" as="sourcePoint" />
            <mxPoint x="18.333333333333336" y="5" as="targetPoint" />
            <Array as="points">
              <mxPoint x="18.333333333333336" y="20" />
            </Array>
          </mxGeometry>
        </mxCell>
        <mxCell id="2Sv0aqTZc2X42y4k00EZ-102" value="" style="endArrow=open;html=1;edgeStyle=orthogonalEdgeStyle;rounded=0;endFill=0;startSize=6;endSize=2;strokeColor=#FFFFFF;fontFamily=Manrope;fontSource=https%3A%2F%2Ffonts.googleapis.com%2Fcss%3Ffamily%3DManrope;" parent="2Sv0aqTZc2X42y4k00EZ-99" edge="1">
          <mxGeometry width="83.33333333333334" height="83.33333333333334" as="geometry">
            <mxPoint x="18.333333333333336" y="45" as="sourcePoint" />
            <mxPoint x="5" y="31.666666666666668" as="targetPoint" />
            <Array as="points">
              <mxPoint x="18.333333333333336" y="31.666666666666668" />
            </Array>
          </mxGeometry>
        </mxCell>
        <mxCell id="2Sv0aqTZc2X42y4k00EZ-103" value="" style="endArrow=open;html=1;edgeStyle=orthogonalEdgeStyle;rounded=0;endFill=0;startSize=6;endSize=2;strokeColor=#FFFFFF;fontFamily=Manrope;fontSource=https%3A%2F%2Ffonts.googleapis.com%2Fcss%3Ffamily%3DManrope;" parent="2Sv0aqTZc2X42y4k00EZ-99" edge="1">
          <mxGeometry width="83.33333333333334" height="83.33333333333334" as="geometry">
            <mxPoint x="30" y="5" as="sourcePoint" />
            <mxPoint x="45" y="20" as="targetPoint" />
            <Array as="points">
              <mxPoint x="30" y="20" />
            </Array>
          </mxGeometry>
        </mxCell>
        <mxCell id="2Sv0aqTZc2X42y4k00EZ-104" value="" style="endArrow=open;html=1;edgeStyle=orthogonalEdgeStyle;rounded=0;endFill=0;startSize=6;endSize=2;strokeColor=#FFFFFF;fontFamily=Manrope;fontSource=https%3A%2F%2Ffonts.googleapis.com%2Fcss%3Ffamily%3DManrope;" parent="2Sv0aqTZc2X42y4k00EZ-99" edge="1">
          <mxGeometry width="83.33333333333334" height="83.33333333333334" as="geometry">
            <mxPoint x="45" y="31.666666666666668" as="sourcePoint" />
            <mxPoint x="30" y="45" as="targetPoint" />
            <Array as="points">
              <mxPoint x="30" y="31.666666666666668" />
            </Array>
          </mxGeometry>
        </mxCell>
        <mxCell id="2Sv0aqTZc2X42y4k00EZ-105" value="&lt;font&gt;srl&lt;/font&gt;" style="text;html=1;align=center;verticalAlign=middle;resizable=0;points=[];autosize=1;fontSize=14;fontFamily=Manrope;fontStyle=0;fontColor=#FFFFFF;" parent="1" vertex="1">
          <mxGeometry x="743" y="389" width="27" height="22" as="geometry" />
        </mxCell>
        <mxCell id="2Sv0aqTZc2X42y4k00EZ-106" style="edgeStyle=orthogonalEdgeStyle;rounded=0;orthogonalLoop=1;jettySize=auto;html=1;fontFamily=Manrope;fontSize=12;fontColor=#FFFFFF;endArrow=oval;endFill=1;startArrow=oval;startFill=1;strokeColor=#4BDD33;" parent="1" edge="1">
          <mxGeometry relative="1" as="geometry">
            <mxPoint x="755.7600000000002" y="294" as="sourcePoint" />
            <mxPoint x="755.7600000000002" y="334" as="targetPoint" />
          </mxGeometry>
        </mxCell>
        <mxCell id="2Sv0aqTZc2X42y4k00EZ-107" style="edgeStyle=orthogonalEdgeStyle;rounded=0;orthogonalLoop=1;jettySize=auto;html=1;fontFamily=Manrope;fontSize=12;fontColor=#FFFFFF;endArrow=oval;endFill=1;startArrow=oval;startFill=1;entryX=1;entryY=0.5;entryDx=0;entryDy=0;exitX=0;exitY=0.5;exitDx=0;exitDy=0;strokeColor=#98A2AE;" parent="1" source="2Sv0aqTZc2X42y4k00EZ-109" target="2Sv0aqTZc2X42y4k00EZ-108" edge="1">
          <mxGeometry relative="1" as="geometry">
            <mxPoint x="626" y="285.62" as="sourcePoint" />
            <mxPoint x="626" y="325.62" as="targetPoint" />
          </mxGeometry>
        </mxCell>
        <mxCell id="2Sv0aqTZc2X42y4k00EZ-108" value="eth1" style="rounded=0;whiteSpace=wrap;html=1;fontFamily=Manrope;fontSize=12;fontColor=#FFFFFF;align=center;strokeColor=none;rotation=0;horizontal=1;fillColor=#98A2AE;" parent="1" vertex="1">
          <mxGeometry x="646" y="337.49" width="30" height="16.25" as="geometry" />
        </mxCell>
        <mxCell id="2Sv0aqTZc2X42y4k00EZ-109" value="e1-1" style="rounded=0;whiteSpace=wrap;html=1;fontFamily=Manrope;fontSize=12;fontColor=#FFFFFF;align=center;strokeColor=none;rotation=0;horizontal=1;fillColor=#98A2AE;" parent="1" vertex="1">
          <mxGeometry x="701" y="337" width="30" height="16.25" as="geometry" />
        </mxCell>
        <mxCell id="2Sv0aqTZc2X42y4k00EZ-110" value="&lt;font&gt;Lab logical diagram&lt;/font&gt;" style="text;html=1;align=center;verticalAlign=middle;resizable=0;points=[];autosize=1;fontSize=14;fontFamily=Manrope;fontStyle=0;fontColor=#FFFFFF;" parent="1" vertex="1">
          <mxGeometry x="618" y="493" width="134" height="22" as="geometry" />
        </mxCell>
        <mxCell id="2Sv0aqTZc2X42y4k00EZ-111" style="edgeStyle=orthogonalEdgeStyle;rounded=0;orthogonalLoop=1;jettySize=auto;html=1;fontFamily=Manrope;fontSize=12;fontColor=#FFFFFF;endArrow=oval;endFill=1;startArrow=oval;startFill=1;entryX=1;entryY=0.5;entryDx=0;entryDy=0;exitX=0;exitY=0.5;exitDx=0;exitDy=0;strokeColor=#98A2AE;" parent="1" source="2Sv0aqTZc2X42y4k00EZ-113" target="2Sv0aqTZc2X42y4k00EZ-112" edge="1">
          <mxGeometry relative="1" as="geometry">
            <mxPoint x="626" y="311.62" as="sourcePoint" />
            <mxPoint x="626" y="351.62" as="targetPoint" />
          </mxGeometry>
        </mxCell>
        <mxCell id="2Sv0aqTZc2X42y4k00EZ-112" value="eth2" style="rounded=0;whiteSpace=wrap;html=1;fontFamily=Manrope;fontSize=12;fontColor=#FFFFFF;align=center;strokeColor=none;rotation=0;horizontal=1;fillColor=#98A2AE;" parent="1" vertex="1">
          <mxGeometry x="646" y="363.49" width="30" height="16.25" as="geometry" />
        </mxCell>
        <mxCell id="2Sv0aqTZc2X42y4k00EZ-113" value="e1-2" style="rounded=0;whiteSpace=wrap;html=1;fontFamily=Manrope;fontSize=12;fontColor=#FFFFFF;align=center;strokeColor=none;rotation=0;horizontal=1;fillColor=#98A2AE;" parent="1" vertex="1">
          <mxGeometry x="701" y="363" width="30" height="16.25" as="geometry" />
        </mxCell>
        <mxCell id="2Sv0aqTZc2X42y4k00EZ-114" value="" style="rounded=0;whiteSpace=wrap;html=1;fontSize=12;align=center;fontFamily=Manrope;fontSource=https%3A%2F%2Ffonts.googleapis.com%2Fcss%3Ffamily%3DManrope;fontColor=#FFFFFF;dashed=1;strokeColor=none;fillColor=#DDE9F5;" parent="1" vertex="1">
          <mxGeometry x="40" y="205" width="430" height="285" as="geometry" />
        </mxCell>
        <mxCell id="2Sv0aqTZc2X42y4k00EZ-115" value="&lt;span style=&quot;font-size: 14px&quot;&gt;Lab host&lt;/span&gt;" style="rounded=0;whiteSpace=wrap;html=1;fontSize=12;align=center;fontFamily=Manrope;fontSource=https%3A%2F%2Ffonts.googleapis.com%2Fcss%3Ffamily%3DManrope;dashed=1;strokeColor=none;fillColor=#98A2AE;fontColor=#FFFFFF;" parent="1" vertex="1">
          <mxGeometry x="40" y="185" width="430" height="20" as="geometry" />
        </mxCell>
        <mxCell id="2Sv0aqTZc2X42y4k00EZ-116" value="" style="rounded=0;whiteSpace=wrap;html=1;fontSize=12;align=center;strokeColor=none;fontFamily=Manrope;fontSource=https%3A%2F%2Ffonts.googleapis.com%2Fcss%3Ffamily%3DManrope;fontColor=#DDE9F5;fillColor=#BEC8D2;" parent="1" vertex="1">
          <mxGeometry x="76.5" y="365" width="163.5" height="107.5" as="geometry" />
        </mxCell>
        <mxCell id="2Sv0aqTZc2X42y4k00EZ-117" value="OSTINATO" style="rounded=0;whiteSpace=wrap;html=1;fontSize=12;align=center;strokeColor=none;fontFamily=Manrope;fontSource=https%3A%2F%2Ffonts.googleapis.com%2Fcss%3Ffamily%3DManrope;fontColor=#FFFFFF;fillColor=#124191;" parent="1" vertex="1">
          <mxGeometry x="80" y="400" width="120" height="60" as="geometry" />
        </mxCell>
        <mxCell id="2Sv0aqTZc2X42y4k00EZ-118" value="mgmt" style="rounded=0;whiteSpace=wrap;html=1;fontFamily=Manrope;fontSize=12;fontColor=#FFFFFF;align=center;fillColor=#4BDD33;strokeColor=none;" parent="1" vertex="1">
          <mxGeometry x="118.25" y="385" width="43.5" height="15" as="geometry" />
        </mxCell>
        <mxCell id="2Sv0aqTZc2X42y4k00EZ-119" value="" style="rounded=0;whiteSpace=wrap;html=1;fontSize=12;align=center;strokeColor=none;fontFamily=Manrope;fontSource=https%3A%2F%2Ffonts.googleapis.com%2Fcss%3Ffamily%3DManrope;fontColor=#FFFFFF;fillColor=#BEC8D2;" parent="1" vertex="1">
          <mxGeometry x="76.5" y="216" width="383.5" height="126" as="geometry" />
        </mxCell>
        <mxCell id="2Sv0aqTZc2X42y4k00EZ-120" value="&lt;font face=&quot;Fira Code&quot; data-font-src=&quot;https://fonts.googleapis.com/css?family=Fira+Code&quot; style=&quot;font-size: 10px&quot;&gt;&lt;br&gt;&lt;/font&gt;" style="rounded=0;whiteSpace=wrap;html=1;fontSize=12;align=left;strokeColor=none;fontFamily=Manrope;fontSource=https%3A%2F%2Ffonts.googleapis.com%2Fcss%3Ffamily%3DManrope;fontColor=#FFFFFF;spacingLeft=4;fillColor=#124191;verticalAlign=middle;connectable=0;" parent="1" vertex="1">
          <mxGeometry x="85" y="240" width="365" height="95" as="geometry" />
        </mxCell>
        <mxCell id="2Sv0aqTZc2X42y4k00EZ-121" value="veth&lt;font color=&quot;#bec8d2&quot;&gt;XXX&lt;/font&gt;" style="rounded=0;whiteSpace=wrap;html=1;fontFamily=Manrope;fontSize=12;fontColor=#FFFFFF;align=center;fillColor=#4BDD33;strokeColor=none;" parent="1" vertex="1">
          <mxGeometry x="113.63" y="307.5" width="52.75" height="20" as="geometry" />
        </mxCell>
        <mxCell id="2Sv0aqTZc2X42y4k00EZ-122" style="edgeStyle=orthogonalEdgeStyle;rounded=0;orthogonalLoop=1;jettySize=auto;html=1;exitX=0.5;exitY=0;exitDx=0;exitDy=0;entryX=0.5;entryY=1;entryDx=0;entryDy=0;fontFamily=Manrope;fontSize=12;fontColor=#FFFFFF;endArrow=oval;endFill=1;startArrow=oval;startFill=1;strokeColor=#4BDD33;" parent="1" source="2Sv0aqTZc2X42y4k00EZ-118" target="2Sv0aqTZc2X42y4k00EZ-121" edge="1">
          <mxGeometry relative="1" as="geometry" />
        </mxCell>
        <mxCell id="2Sv0aqTZc2X42y4k00EZ-123" value="&lt;font color=&quot;#dde9f5&quot;&gt;netns:&lt;/font&gt;&amp;nbsp;default" style="rounded=0;whiteSpace=wrap;html=1;fontSize=12;align=center;fontFamily=Manrope;fontSource=https%3A%2F%2Ffonts.googleapis.com%2Fcss%3Ffamily%3DManrope;fontColor=#FFFFFF;fillColor=#98A2AE;rotation=0;strokeColor=none;horizontal=0;verticalAlign=middle;" parent="1" vertex="1">
          <mxGeometry x="50" y="216" width="26.5" height="126" as="geometry" />
        </mxCell>
        <mxCell id="2Sv0aqTZc2X42y4k00EZ-124" value="&lt;font color=&quot;#dde9f5&quot;&gt;netns:&lt;/font&gt;&amp;nbsp;container1" style="rounded=0;whiteSpace=wrap;html=1;fontSize=12;align=center;fontFamily=Manrope;fontSource=https%3A%2F%2Ffonts.googleapis.com%2Fcss%3Ffamily%3DManrope;fontColor=#FFFFFF;fillColor=#98A2AE;rotation=0;strokeColor=none;horizontal=0;verticalAlign=middle;" parent="1" vertex="1">
          <mxGeometry x="50" y="365" width="26.5" height="107.5" as="geometry" />
        </mxCell>
        <mxCell id="2Sv0aqTZc2X42y4k00EZ-125" value="&lt;font color=&quot;#bec8d2&quot;&gt;docker network:&lt;/font&gt; clab&lt;font face=&quot;Fira Code&quot; data-font-src=&quot;https://fonts.googleapis.com/css?family=Fira+Code&quot; style=&quot;font-size: 10px&quot;&gt;&lt;br&gt;&lt;/font&gt;" style="rounded=0;whiteSpace=wrap;html=1;fontSize=12;align=left;strokeColor=none;fontFamily=Manrope;fontSource=https%3A%2F%2Ffonts.googleapis.com%2Fcss%3Ffamily%3DManrope;fontColor=#FFFFFF;spacingLeft=4;fillColor=#001135;" parent="1" vertex="1">
          <mxGeometry x="85" y="220" width="365" height="20" as="geometry" />
        </mxCell>
        <mxCell id="2Sv0aqTZc2X42y4k00EZ-126" value="br-&lt;font color=&quot;#98a2ae&quot;&gt;XXX&lt;/font&gt;" style="rounded=0;whiteSpace=wrap;html=1;fontSize=12;align=left;fontFamily=Manrope;fontSource=https%3A%2F%2Ffonts.googleapis.com%2Fcss%3Ffamily%3DManrope;dashed=1;strokeColor=none;fillColor=#DDE9F5;fontColor=#001135;spacingLeft=4;" parent="1" vertex="1">
          <mxGeometry x="102.25" y="290" width="307.75" height="17.5" as="geometry" />
        </mxCell>
        <mxCell id="2Sv0aqTZc2X42y4k00EZ-127" value="&lt;font face=&quot;Fira Code&quot; data-font-src=&quot;https://fonts.googleapis.com/css?family=Fira+Code&quot;&gt;&lt;font style=&quot;font-size: 12px&quot;&gt;Pool&lt;/font&gt;&lt;br&gt;&lt;/font&gt;" style="rounded=0;whiteSpace=wrap;html=1;fontSize=12;align=center;strokeColor=none;fontFamily=Manrope;fontSource=https%3A%2F%2Ffonts.googleapis.com%2Fcss%3Ffamily%3DManrope;fontColor=#FFFFFF;spacingLeft=0;verticalAlign=middle;fillColor=#00C9FF;" parent="1" vertex="1">
          <mxGeometry x="102" y="245" width="34.25" height="35" as="geometry" />
        </mxCell>
        <mxCell id="2Sv0aqTZc2X42y4k00EZ-128" value="&lt;font color=&quot;#98a2ae&quot; style=&quot;font-size: 12px ; line-height: 100%&quot;&gt;IPv4:&lt;/font&gt;&lt;span style=&quot;color: rgb(255 , 255 , 255)&quot;&gt;&amp;nbsp;&lt;/span&gt;&lt;font face=&quot;Fira Code&quot; data-font-src=&quot;https://fonts.googleapis.com/css?family=Fira+Code&quot; style=&quot;font-size: 10px&quot;&gt;172.20.20.0/24&lt;br&gt;&lt;span style=&quot;color: rgb(255 , 255 , 255) ; font-family: &amp;#34;manrope&amp;#34; ; font-size: 12px&quot;&gt;&lt;font color=&quot;#98a2ae&quot;&gt;IPv6:&lt;/font&gt;&amp;nbsp;&lt;/span&gt;&lt;font face=&quot;Fira Code&quot; data-font-src=&quot;https://fonts.googleapis.com/css?family=Fira+Code&quot;&gt;2001:172:20:20::/80&lt;/font&gt;&lt;/font&gt;" style="rounded=0;whiteSpace=wrap;html=1;fontSize=12;align=left;fontFamily=Manrope;fontSource=https%3A%2F%2Ffonts.googleapis.com%2Fcss%3Ffamily%3DManrope;dashed=1;strokeColor=none;fillColor=#DDE9F5;fontColor=#001135;" parent="1" vertex="1">
          <mxGeometry x="136.25" y="245" width="150" height="35" as="geometry" />
        </mxCell>
        <mxCell id="2Sv0aqTZc2X42y4k00EZ-129" style="rounded=0;orthogonalLoop=1;jettySize=auto;html=1;fontFamily=Manrope;fontSize=12;fontColor=#FFFFFF;endArrow=oval;endFill=1;startArrow=oval;startFill=1;strokeColor=#4BDD33;" parent="1" edge="1">
          <mxGeometry relative="1" as="geometry">
            <mxPoint x="332.75" y="260" as="sourcePoint" />
            <mxPoint x="300" y="290" as="targetPoint" />
            <Array as="points">
              <mxPoint x="312.75" y="260" />
            </Array>
          </mxGeometry>
        </mxCell>
        <mxCell id="2Sv0aqTZc2X42y4k00EZ-130" value="&lt;font face=&quot;Fira Code&quot; data-font-src=&quot;https://fonts.googleapis.com/css?family=Fira+Code&quot; style=&quot;font-size: 10px&quot;&gt;172.20.20.1&lt;/font&gt;" style="text;html=1;align=left;verticalAlign=middle;resizable=0;points=[];autosize=1;fontSize=14;fontFamily=Manrope;fontColor=#FFFFFF;" parent="1" vertex="1">
          <mxGeometry x="338.75" y="245" width="80" height="25" as="geometry" />
        </mxCell>
        <mxCell id="2Sv0aqTZc2X42y4k00EZ-131" style="rounded=0;orthogonalLoop=1;jettySize=auto;html=1;fontFamily=Manrope;fontSize=12;fontColor=#FFFFFF;endArrow=oval;endFill=1;startArrow=oval;startFill=1;strokeColor=#4BDD33;" parent="1" edge="1">
          <mxGeometry relative="1" as="geometry">
            <mxPoint x="332.75" y="275" as="sourcePoint" />
            <mxPoint x="300" y="290" as="targetPoint" />
            <Array as="points">
              <mxPoint x="312.75" y="275" />
            </Array>
          </mxGeometry>
        </mxCell>
        <mxCell id="2Sv0aqTZc2X42y4k00EZ-132" value="&lt;font face=&quot;Fira Code&quot; data-font-src=&quot;https://fonts.googleapis.com/css?family=Fira+Code&quot; style=&quot;font-size: 10px&quot;&gt;2001:172:20:20::1&lt;/font&gt;" style="text;html=1;align=left;verticalAlign=middle;resizable=0;points=[];autosize=1;fontSize=14;fontFamily=Manrope;fontColor=#FFFFFF;" parent="1" vertex="1">
          <mxGeometry x="338.75" y="260" width="115" height="25" as="geometry" />
        </mxCell>
        <mxCell id="2Sv0aqTZc2X42y4k00EZ-133" value="" style="rounded=0;whiteSpace=wrap;html=1;fontSize=12;align=center;strokeColor=none;fontFamily=Manrope;fontSource=https%3A%2F%2Ffonts.googleapis.com%2Fcss%3Ffamily%3DManrope;fontColor=#DDE9F5;fillColor=#BEC8D2;" parent="1" vertex="1">
          <mxGeometry x="270" y="365" width="163.5" height="107.5" as="geometry" />
        </mxCell>
        <mxCell id="2Sv0aqTZc2X42y4k00EZ-134" value="SR Linux" style="rounded=0;whiteSpace=wrap;html=1;fontSize=12;align=center;strokeColor=none;fontFamily=Manrope;fontSource=https%3A%2F%2Ffonts.googleapis.com%2Fcss%3Ffamily%3DManrope;fontColor=#FFFFFF;fillColor=#124191;" parent="1" vertex="1">
          <mxGeometry x="308.5" y="400" width="120" height="59" as="geometry" />
        </mxCell>
        <mxCell id="2Sv0aqTZc2X42y4k00EZ-135" value="mgmt" style="rounded=0;whiteSpace=wrap;html=1;fontFamily=Manrope;fontSize=12;fontColor=#FFFFFF;align=center;fillColor=#4BDD33;strokeColor=none;" parent="1" vertex="1">
          <mxGeometry x="346.75" y="385" width="43.5" height="15" as="geometry" />
        </mxCell>
        <mxCell id="2Sv0aqTZc2X42y4k00EZ-136" value="veth&lt;font color=&quot;#bec8d2&quot;&gt;XXX&lt;/font&gt;" style="rounded=0;whiteSpace=wrap;html=1;fontFamily=Manrope;fontSize=12;fontColor=#FFFFFF;align=center;fillColor=#4BDD33;strokeColor=none;" parent="1" vertex="1">
          <mxGeometry x="342.13" y="307.5" width="52.75" height="20" as="geometry" />
        </mxCell>
        <mxCell id="2Sv0aqTZc2X42y4k00EZ-137" style="edgeStyle=orthogonalEdgeStyle;rounded=0;orthogonalLoop=1;jettySize=auto;html=1;exitX=0.5;exitY=0;exitDx=0;exitDy=0;entryX=0.5;entryY=1;entryDx=0;entryDy=0;fontFamily=Manrope;fontSize=12;fontColor=#FFFFFF;endArrow=oval;endFill=1;startArrow=oval;startFill=1;strokeColor=#4BDD33;" parent="1" source="2Sv0aqTZc2X42y4k00EZ-135" target="2Sv0aqTZc2X42y4k00EZ-136" edge="1">
          <mxGeometry relative="1" as="geometry" />
        </mxCell>
        <mxCell id="2Sv0aqTZc2X42y4k00EZ-138" value="&lt;font color=&quot;#dde9f5&quot;&gt;netns:&lt;/font&gt;&amp;nbsp;container2" style="rounded=0;whiteSpace=wrap;html=1;fontSize=12;align=center;fontFamily=Manrope;fontSource=https%3A%2F%2Ffonts.googleapis.com%2Fcss%3Ffamily%3DManrope;fontColor=#FFFFFF;fillColor=#98A2AE;rotation=0;strokeColor=none;horizontal=0;verticalAlign=middle;" parent="1" vertex="1">
          <mxGeometry x="433.5" y="365" width="26.5" height="107.5" as="geometry" />
        </mxCell>
        <mxCell id="2Sv0aqTZc2X42y4k00EZ-141" style="edgeStyle=orthogonalEdgeStyle;rounded=0;orthogonalLoop=1;jettySize=auto;html=1;exitX=1;exitY=0.5;exitDx=0;exitDy=0;entryX=0;entryY=0.5;entryDx=0;entryDy=0;fontFamily=Manrope;fontSize=12;fontColor=#FFFFFF;endArrow=oval;endFill=1;startArrow=oval;startFill=1;strokeColor=#001135;" parent="1" source="2Sv0aqTZc2X42y4k00EZ-139" target="2Sv0aqTZc2X42y4k00EZ-140" edge="1">
          <mxGeometry relative="1" as="geometry">
            <mxPoint x="145" y="374.37" as="sourcePoint" />
            <mxPoint x="145.0050000000001" y="319.37" as="targetPoint" />
          </mxGeometry>
        </mxCell>
        <mxCell id="2Sv0aqTZc2X42y4k00EZ-144" style="edgeStyle=orthogonalEdgeStyle;rounded=0;orthogonalLoop=1;jettySize=auto;html=1;exitX=1;exitY=0.5;exitDx=0;exitDy=0;entryX=0;entryY=0.5;entryDx=0;entryDy=0;fontFamily=Manrope;fontSize=12;fontColor=#FFFFFF;endArrow=oval;endFill=1;startArrow=oval;startFill=1;strokeColor=#001135;" parent="1" source="2Sv0aqTZc2X42y4k00EZ-142" target="2Sv0aqTZc2X42y4k00EZ-143" edge="1">
          <mxGeometry relative="1" as="geometry">
            <mxPoint x="145" y="407.37" as="sourcePoint" />
            <mxPoint x="145.0050000000001" y="352.37" as="targetPoint" />
          </mxGeometry>
        </mxCell>
        <mxCell id="2Sv0aqTZc2X42y4k00EZ-142" value="eth2" style="rounded=0;whiteSpace=wrap;html=1;fontFamily=Manrope;fontSize=12;fontColor=#FFFFFF;align=center;strokeColor=none;rotation=0;horizontal=1;fillColor=#001135;" parent="1" vertex="1">
          <mxGeometry x="200" y="438" width="30" height="16.25" as="geometry" />
        </mxCell>
        <mxCell id="2Sv0aqTZc2X42y4k00EZ-139" value="eth1" style="rounded=0;whiteSpace=wrap;html=1;fontFamily=Manrope;fontSize=12;fontColor=#FFFFFF;align=center;strokeColor=none;rotation=0;horizontal=1;fillColor=#001135;" parent="1" vertex="1">
          <mxGeometry x="200" y="405" width="30" height="16.25" as="geometry" />
        </mxCell>
        <mxCell id="2Sv0aqTZc2X42y4k00EZ-140" value="e1-1" style="rounded=0;whiteSpace=wrap;html=1;fontFamily=Manrope;fontSize=12;fontColor=#FFFFFF;align=center;strokeColor=none;rotation=0;horizontal=1;fillColor=#001135;" parent="1" vertex="1">
          <mxGeometry x="280" y="405" width="28.5" height="16.25" as="geometry" />
        </mxCell>
        <mxCell id="2Sv0aqTZc2X42y4k00EZ-143" value="e1-2" style="rounded=0;whiteSpace=wrap;html=1;fontFamily=Manrope;fontSize=12;fontColor=#FFFFFF;align=center;strokeColor=none;rotation=0;horizontal=1;fillColor=#001135;" parent="1" vertex="1">
          <mxGeometry x="280" y="438" width="28.5" height="16.25" as="geometry" />
        </mxCell>
      </root>
    </mxGraphModel>
  </diagram>
  <diagram name="[1] ipv4" id="V8nnQ1vQ4zYxfAPbOF_e">
    <mxGraphModel dx="595" dy="325" grid="0" gridSize="1" guides="1" tooltips="1" connect="1" arrows="1" fold="1" page="1" pageScale="1" pageWidth="827" pageHeight="1169" background="#4D5766" math="0" shadow="0">
      <root>
        <mxCell id="zDJArAnaMwm5IaJZyra1-0" />
        <mxCell id="zDJArAnaMwm5IaJZyra1-1" parent="zDJArAnaMwm5IaJZyra1-0" />
        <mxCell id="zDJArAnaMwm5IaJZyra1-27" value="&lt;font&gt;IPv4 addressing and traffic flow&lt;/font&gt;" style="text;html=1;align=center;verticalAlign=middle;resizable=0;points=[];autosize=1;fontSize=14;fontFamily=Manrope;fontStyle=0;fontColor=#FFFFFF;" parent="zDJArAnaMwm5IaJZyra1-1" vertex="1">
          <mxGeometry x="277" y="376" width="219" height="29" as="geometry" />
        </mxCell>
        <mxCell id="wTvNP578jJFRJUSxW7GL-1" value="&lt;font&gt;ostinato&lt;/font&gt;" style="text;html=1;align=center;verticalAlign=middle;resizable=0;points=[];autosize=1;fontSize=14;fontFamily=Manrope;fontStyle=0;fontColor=#FFFFFF;" parent="zDJArAnaMwm5IaJZyra1-1" vertex="1">
          <mxGeometry x="254" y="298" width="72" height="29" as="geometry" />
        </mxCell>
        <mxCell id="wTvNP578jJFRJUSxW7GL-2" value="e1-2" style="rounded=0;whiteSpace=wrap;html=1;fontFamily=Manrope;fontSize=12;fontColor=#FFFFFF;align=center;strokeColor=none;rotation=0;horizontal=1;fillColor=#98A2AE;" parent="zDJArAnaMwm5IaJZyra1-1" vertex="1">
          <mxGeometry x="414" y="280" width="30" height="16.25" as="geometry" />
        </mxCell>
        <mxCell id="wTvNP578jJFRJUSxW7GL-3" value="&lt;div style=&quot;font-size: 8px&quot;&gt;&lt;span style=&quot;color: rgb(255 , 255 , 255) ; font-size: 8px&quot;&gt;.1&lt;/span&gt;&lt;/div&gt;" style="text;html=1;align=center;verticalAlign=middle;resizable=0;points=[];autosize=1;fontSize=8;fontFamily=Fira Code;fontColor=#001135;fontSource=https%3A%2F%2Ffonts.googleapis.com%2Fcss%3Ffamily%3DFira%2BCode;connectable=0;rotation=0;opacity=60;" parent="zDJArAnaMwm5IaJZyra1-1" vertex="1">
          <mxGeometry x="423" y="291" width="28" height="22" as="geometry" />
        </mxCell>
        <mxCell id="wTvNP578jJFRJUSxW7GL-6" value="" style="group" parent="zDJArAnaMwm5IaJZyra1-1" vertex="1" connectable="0">
          <mxGeometry x="265" y="248" width="50" height="50" as="geometry" />
        </mxCell>
        <mxCell id="wTvNP578jJFRJUSxW7GL-7" value="" style="whiteSpace=wrap;html=1;aspect=fixed;fillColor=#001135;strokeColor=none;connectable=1;allowArrows=1;fontFamily=Manrope;fontSource=https%3A%2F%2Ffonts.googleapis.com%2Fcss%3Ffamily%3DManrope;" parent="wTvNP578jJFRJUSxW7GL-6" vertex="1">
          <mxGeometry width="50" height="50" as="geometry" />
        </mxCell>
        <mxCell id="wTvNP578jJFRJUSxW7GL-8" value="" style="endArrow=open;html=1;edgeStyle=orthogonalEdgeStyle;rounded=0;endFill=0;startSize=6;endSize=2;strokeColor=#FFFFFF;fontFamily=Manrope;fontSource=https%3A%2F%2Ffonts.googleapis.com%2Fcss%3Ffamily%3DManrope;" parent="wTvNP578jJFRJUSxW7GL-6" edge="1">
          <mxGeometry width="83.33333333333334" height="83.33333333333334" as="geometry">
            <mxPoint x="5" y="20" as="sourcePoint" />
            <mxPoint x="18.333333333333336" y="5" as="targetPoint" />
            <Array as="points">
              <mxPoint x="18.333333333333336" y="20" />
            </Array>
          </mxGeometry>
        </mxCell>
        <mxCell id="wTvNP578jJFRJUSxW7GL-9" value="" style="endArrow=open;html=1;edgeStyle=orthogonalEdgeStyle;rounded=0;endFill=0;startSize=6;endSize=2;strokeColor=#FFFFFF;fontFamily=Manrope;fontSource=https%3A%2F%2Ffonts.googleapis.com%2Fcss%3Ffamily%3DManrope;" parent="wTvNP578jJFRJUSxW7GL-6" edge="1">
          <mxGeometry width="83.33333333333334" height="83.33333333333334" as="geometry">
            <mxPoint x="18.333333333333336" y="45" as="sourcePoint" />
            <mxPoint x="5" y="31.666666666666668" as="targetPoint" />
            <Array as="points">
              <mxPoint x="18.333333333333336" y="31.666666666666668" />
            </Array>
          </mxGeometry>
        </mxCell>
        <mxCell id="wTvNP578jJFRJUSxW7GL-10" value="" style="endArrow=open;html=1;edgeStyle=orthogonalEdgeStyle;rounded=0;endFill=0;startSize=6;endSize=2;strokeColor=#FFFFFF;fontFamily=Manrope;fontSource=https%3A%2F%2Ffonts.googleapis.com%2Fcss%3Ffamily%3DManrope;" parent="wTvNP578jJFRJUSxW7GL-6" edge="1">
          <mxGeometry width="83.33333333333334" height="83.33333333333334" as="geometry">
            <mxPoint x="30" y="5" as="sourcePoint" />
            <mxPoint x="45" y="20" as="targetPoint" />
            <Array as="points">
              <mxPoint x="30" y="20" />
            </Array>
          </mxGeometry>
        </mxCell>
        <mxCell id="wTvNP578jJFRJUSxW7GL-11" value="" style="endArrow=open;html=1;edgeStyle=orthogonalEdgeStyle;rounded=0;endFill=0;startSize=6;endSize=2;strokeColor=#FFFFFF;fontFamily=Manrope;fontSource=https%3A%2F%2Ffonts.googleapis.com%2Fcss%3Ffamily%3DManrope;" parent="wTvNP578jJFRJUSxW7GL-6" edge="1">
          <mxGeometry width="83.33333333333334" height="83.33333333333334" as="geometry">
            <mxPoint x="45" y="31.666666666666668" as="sourcePoint" />
            <mxPoint x="30" y="45" as="targetPoint" />
            <Array as="points">
              <mxPoint x="30" y="31.666666666666668" />
            </Array>
          </mxGeometry>
        </mxCell>
        <mxCell id="wTvNP578jJFRJUSxW7GL-12" value="&lt;div style=&quot;font-size: 8px&quot;&gt;&lt;span style=&quot;color: rgb(255 , 255 , 255) ; font-size: 8px&quot;&gt;.100&lt;/span&gt;&lt;/div&gt;" style="text;html=1;align=center;verticalAlign=middle;resizable=0;points=[];autosize=1;fontSize=8;fontFamily=Fira Code;fontColor=#001135;fontSource=https%3A%2F%2Ffonts.googleapis.com%2Fcss%3Ffamily%3DFira%2BCode;connectable=0;rotation=0;opacity=60;" parent="zDJArAnaMwm5IaJZyra1-1" vertex="1">
          <mxGeometry x="302" y="234" width="37" height="22" as="geometry" />
        </mxCell>
        <mxCell id="wTvNP578jJFRJUSxW7GL-13" value="eth1" style="rounded=0;whiteSpace=wrap;html=1;fontFamily=Manrope;fontSize=12;fontColor=#FFFFFF;align=center;strokeColor=none;rotation=0;horizontal=1;fillColor=#98A2AE;" parent="zDJArAnaMwm5IaJZyra1-1" vertex="1">
          <mxGeometry x="315" y="250" width="30" height="16.25" as="geometry" />
        </mxCell>
        <mxCell id="wTvNP578jJFRJUSxW7GL-14" value="e1-1" style="rounded=0;whiteSpace=wrap;html=1;fontFamily=Manrope;fontSize=12;fontColor=#FFFFFF;align=center;strokeColor=none;rotation=0;horizontal=1;fillColor=#98A2AE;" parent="zDJArAnaMwm5IaJZyra1-1" vertex="1">
          <mxGeometry x="414" y="250" width="30" height="16.25" as="geometry" />
        </mxCell>
        <mxCell id="wTvNP578jJFRJUSxW7GL-15" value="&lt;div style=&quot;font-size: 8px&quot;&gt;&lt;span style=&quot;color: rgb(255 , 255 , 255) ; font-size: 8px&quot;&gt;.1&lt;/span&gt;&lt;/div&gt;" style="text;html=1;align=center;verticalAlign=middle;resizable=0;points=[];autosize=1;fontSize=8;fontFamily=Fira Code;fontColor=#001135;fontSource=https%3A%2F%2Ffonts.googleapis.com%2Fcss%3Ffamily%3DFira%2BCode;connectable=0;rotation=0;opacity=60;" parent="zDJArAnaMwm5IaJZyra1-1" vertex="1">
          <mxGeometry x="422" y="235" width="28" height="22" as="geometry" />
        </mxCell>
        <mxCell id="wTvNP578jJFRJUSxW7GL-17" value="&lt;font&gt;srl&lt;/font&gt;" style="text;html=1;align=center;verticalAlign=middle;resizable=0;points=[];autosize=1;fontSize=14;fontFamily=Manrope;fontStyle=0;fontColor=#FFFFFF;" parent="zDJArAnaMwm5IaJZyra1-1" vertex="1">
          <mxGeometry x="455.5" y="301.5" width="27" height="22" as="geometry" />
        </mxCell>
        <mxCell id="wTvNP578jJFRJUSxW7GL-18" value="" style="endArrow=none;html=1;rounded=0;strokeColor=#CCCCCC;entryX=1;entryY=0.5;entryDx=0;entryDy=0;exitX=0;exitY=0.5;exitDx=0;exitDy=0;" parent="zDJArAnaMwm5IaJZyra1-1" source="wTvNP578jJFRJUSxW7GL-14" target="wTvNP578jJFRJUSxW7GL-13" edge="1">
          <mxGeometry width="50" height="50" relative="1" as="geometry">
            <mxPoint x="414" y="256" as="sourcePoint" />
            <mxPoint x="350" y="256" as="targetPoint" />
          </mxGeometry>
        </mxCell>
        <mxCell id="wTvNP578jJFRJUSxW7GL-19" value="" style="endArrow=none;html=1;rounded=0;strokeColor=#E6E6E6;exitX=1;exitY=0.5;exitDx=0;exitDy=0;entryX=0;entryY=0.5;entryDx=0;entryDy=0;" parent="zDJArAnaMwm5IaJZyra1-1" source="wTvNP578jJFRJUSxW7GL-21" target="wTvNP578jJFRJUSxW7GL-2" edge="1">
          <mxGeometry width="50" height="50" relative="1" as="geometry">
            <mxPoint x="349" y="314" as="sourcePoint" />
            <mxPoint x="413" y="313" as="targetPoint" />
          </mxGeometry>
        </mxCell>
        <mxCell id="wTvNP578jJFRJUSxW7GL-20" value="&lt;div style=&quot;font-size: 8px&quot;&gt;&lt;span style=&quot;color: rgb(255 , 255 , 255) ; font-size: 8px&quot;&gt;.100&lt;/span&gt;&lt;/div&gt;" style="text;html=1;align=center;verticalAlign=middle;resizable=0;points=[];autosize=1;fontSize=8;fontFamily=Fira Code;fontColor=#001135;fontSource=https://fonts.googleapis.com/css?family=Fira+Code;connectable=0;rotation=0;opacity=60;" parent="zDJArAnaMwm5IaJZyra1-1" vertex="1">
          <mxGeometry x="300" y="293" width="37" height="22" as="geometry" />
        </mxCell>
        <mxCell id="wTvNP578jJFRJUSxW7GL-21" value="eth2" style="rounded=0;whiteSpace=wrap;html=1;fontFamily=Manrope;fontSize=12;fontColor=#FFFFFF;align=center;strokeColor=none;rotation=0;horizontal=1;fillColor=#98A2AE;" parent="zDJArAnaMwm5IaJZyra1-1" vertex="1">
          <mxGeometry x="315" y="280" width="30" height="16.25" as="geometry" />
        </mxCell>
        <mxCell id="wTvNP578jJFRJUSxW7GL-22" value="" style="group" parent="zDJArAnaMwm5IaJZyra1-1" vertex="1" connectable="0">
          <mxGeometry x="444" y="248" width="50" height="50" as="geometry" />
        </mxCell>
        <mxCell id="wTvNP578jJFRJUSxW7GL-23" value="" style="whiteSpace=wrap;html=1;aspect=fixed;fillColor=#001135;strokeColor=none;connectable=1;allowArrows=1;fontFamily=Manrope;fontSource=https%3A%2F%2Ffonts.googleapis.com%2Fcss%3Ffamily%3DManrope;" parent="wTvNP578jJFRJUSxW7GL-22" vertex="1">
          <mxGeometry width="50" height="50" as="geometry" />
        </mxCell>
        <mxCell id="wTvNP578jJFRJUSxW7GL-24" value="" style="endArrow=open;html=1;edgeStyle=orthogonalEdgeStyle;rounded=0;endFill=0;startSize=6;endSize=2;strokeColor=#FFFFFF;fontFamily=Manrope;fontSource=https%3A%2F%2Ffonts.googleapis.com%2Fcss%3Ffamily%3DManrope;" parent="wTvNP578jJFRJUSxW7GL-22" edge="1">
          <mxGeometry width="83.33333333333334" height="83.33333333333334" as="geometry">
            <mxPoint x="5" y="20" as="sourcePoint" />
            <mxPoint x="18.333333333333336" y="5" as="targetPoint" />
            <Array as="points">
              <mxPoint x="18.333333333333336" y="20" />
            </Array>
          </mxGeometry>
        </mxCell>
        <mxCell id="wTvNP578jJFRJUSxW7GL-25" value="" style="endArrow=open;html=1;edgeStyle=orthogonalEdgeStyle;rounded=0;endFill=0;startSize=6;endSize=2;strokeColor=#FFFFFF;fontFamily=Manrope;fontSource=https%3A%2F%2Ffonts.googleapis.com%2Fcss%3Ffamily%3DManrope;" parent="wTvNP578jJFRJUSxW7GL-22" edge="1">
          <mxGeometry width="83.33333333333334" height="83.33333333333334" as="geometry">
            <mxPoint x="18.333333333333336" y="45" as="sourcePoint" />
            <mxPoint x="5" y="31.666666666666668" as="targetPoint" />
            <Array as="points">
              <mxPoint x="18.333333333333336" y="31.666666666666668" />
            </Array>
          </mxGeometry>
        </mxCell>
        <mxCell id="wTvNP578jJFRJUSxW7GL-26" value="" style="endArrow=open;html=1;edgeStyle=orthogonalEdgeStyle;rounded=0;endFill=0;startSize=6;endSize=2;strokeColor=#FFFFFF;fontFamily=Manrope;fontSource=https%3A%2F%2Ffonts.googleapis.com%2Fcss%3Ffamily%3DManrope;" parent="wTvNP578jJFRJUSxW7GL-22" edge="1">
          <mxGeometry width="83.33333333333334" height="83.33333333333334" as="geometry">
            <mxPoint x="30" y="5" as="sourcePoint" />
            <mxPoint x="45" y="20" as="targetPoint" />
            <Array as="points">
              <mxPoint x="30" y="20" />
            </Array>
          </mxGeometry>
        </mxCell>
        <mxCell id="wTvNP578jJFRJUSxW7GL-27" value="" style="endArrow=open;html=1;edgeStyle=orthogonalEdgeStyle;rounded=0;endFill=0;startSize=6;endSize=2;strokeColor=#FFFFFF;fontFamily=Manrope;fontSource=https%3A%2F%2Ffonts.googleapis.com%2Fcss%3Ffamily%3DManrope;" parent="wTvNP578jJFRJUSxW7GL-22" edge="1">
          <mxGeometry width="83.33333333333334" height="83.33333333333334" as="geometry">
            <mxPoint x="45" y="31.666666666666668" as="sourcePoint" />
            <mxPoint x="30" y="45" as="targetPoint" />
            <Array as="points">
              <mxPoint x="30" y="31.666666666666668" />
            </Array>
          </mxGeometry>
        </mxCell>
        <mxCell id="wTvNP578jJFRJUSxW7GL-16" value="&lt;div style=&quot;font-size: 8px&quot;&gt;&lt;font color=&quot;#ffffff&quot; style=&quot;font-size: 8px&quot;&gt;10.0.0.0/24&lt;/font&gt;&lt;/div&gt;" style="text;html=1;align=center;verticalAlign=middle;resizable=0;points=[];autosize=1;fontSize=8;fontFamily=Fira Code;fontColor=#001135;fontSource=https://fonts.googleapis.com/css?family=Fira+Code;connectable=0;rotation=0;opacity=60;fillColor=none;" parent="zDJArAnaMwm5IaJZyra1-1" vertex="1">
          <mxGeometry x="345" y="242" width="71" height="22" as="geometry" />
        </mxCell>
        <mxCell id="wTvNP578jJFRJUSxW7GL-5" value="&lt;div style=&quot;font-size: 8px&quot;&gt;&lt;font color=&quot;#ffffff&quot; style=&quot;font-size: 8px&quot;&gt;20.0.0.0/24&lt;/font&gt;&lt;/div&gt;" style="text;html=1;align=center;verticalAlign=middle;resizable=0;points=[];autosize=1;fontSize=8;fontFamily=Fira Code;fontColor=#001135;fontSource=https://fonts.googleapis.com/css?family=Fira+Code;connectable=0;rotation=0;opacity=60;fillColor=none;" parent="zDJArAnaMwm5IaJZyra1-1" vertex="1">
          <mxGeometry x="345" y="272" width="71" height="22" as="geometry" />
        </mxCell>
        <mxCell id="wTvNP578jJFRJUSxW7GL-30" value="src: 10.0.0.100&lt;div&gt;dst: 20.0.0.100&lt;/div&gt;" style="html=1;shadow=0;dashed=0;align=center;verticalAlign=middle;shape=mxgraph.arrows2.arrow;dy=0.4;dx=24.27;notch=10.27;fontSize=8;fontColor=#EDF3F5;fillColor=#00C9FF;fontFamily=Fira Code;fontSource=https%3A%2F%2Ffonts.googleapis.com%2Fcss%3Ffamily%3DFira%2BCode;strokeColor=none;" parent="zDJArAnaMwm5IaJZyra1-1" vertex="1">
          <mxGeometry x="315" y="203" width="124" height="32" as="geometry" />
        </mxCell>
        <mxCell id="XCJHe0xAs4QQtty46EKq-0" value="src: 20.0.0.100&lt;div&gt;dst: 1&lt;span style=&quot;background-color: initial;&quot;&gt;0.0.0.100&lt;/span&gt;&lt;/div&gt;" style="html=1;shadow=0;dashed=0;align=center;verticalAlign=middle;shape=mxgraph.arrows2.arrow;dy=0.4;dx=24.27;notch=10.27;fontSize=8;fontColor=#EDF3F5;fillColor=#00C9FF;fontFamily=Fira Code;fontSource=https%3A%2F%2Ffonts.googleapis.com%2Fcss%3Ffamily%3DFira%2BCode;strokeColor=none;" parent="zDJArAnaMwm5IaJZyra1-1" vertex="1">
          <mxGeometry x="320" y="315" width="124" height="32" as="geometry" />
        </mxCell>
      </root>
    </mxGraphModel>
  </diagram>
</mxfile>
